<svg xmlns="http://www.w3.org/2000/svg" viewBox="0 0 100 100">
  <!-- Background -->
  <rect width="100" height="100" rx="10" fill="#990000" />
  
  <!-- Wild hair -->
  <path d="M30 10 L20 25 L25 30 L15 40 L25 45 L20 55 L40 50" fill="#cc6600" stroke="#000000" stroke-width="2" />
  <path d="M70 10 L80 25 L75 30 L85 40 L75 45 L80 55 L60 50" fill="#cc6600" stroke="#000000" stroke-width="2" />
  
  <!-- Face -->
  <ellipse cx="50" cy="35" rx="20" ry="25" fill="#aa3333" />
  
  <!-- Chest -->
  <path d="M30 55 L25 90 L50 95 L75 90 L70 55 Z" fill="#cc0000" stroke="#000000" stroke-width="2" />
  
  <!-- Eyes -->
  <circle cx="40" cy="30" r="3" fill="#ffffff" />
  <circle cx="60" cy="30" r="3" fill="#ffffff" />
  
  <!-- Angry eyebrows -->
  <line x1="35" y1="25" x2="45" y2="28" stroke="#000000" stroke-width="2" />
  <line x1="55" y1="28" x2="65" y2="25" stroke="#000000" stroke-width="2" />
  
  <!-- Battle scars -->
  <line x1="40" y1="40" x2="50" y2="45" stroke="#ffffff" stroke-width="1" />
  <line x1="55" y1="35" x2="65" y2="40" stroke="#ffffff" stroke-width="1" />
  
  <!-- Axes -->
  <path d="M20 60 L15 50 L5 50 L15 70 Z" fill="#cccccc" stroke="#000000" stroke-width="1" />
  <line x1="15" y1="60" x2="25" y2="75" stroke="#996633" stroke-width="3" />
  
  <path d="M80 60 L85 50 L95 50 L85 70 Z" fill="#cccccc" stroke="#000000" stroke-width="1" />
  <line x1="85" y1="60" x2="75" y2="75" stroke="#996633" stroke-width="3" />
</svg>