<svg xmlns="http://www.w3.org/2000/svg" viewBox="0 0 100 100">
  <!-- Background -->
  <rect width="100" height="100" rx="10" fill="#33aa44" />
  
  <!-- Leafy headpiece -->
  <path d="M30 15 Q50 0 70 15 L65 30 L35 30 Z" fill="#004400" stroke="#000000" stroke-width="1" />
  <path d="M35 10 L40 20 L30 18 Z" fill="#00aa00" stroke="#000000" stroke-width="1" />
  <path d="M45 5 L48 15 L42 15 Z" fill="#00aa00" stroke="#000000" stroke-width="1" />
  <path d="M55 5 L58 15 L52 15 Z" fill="#00aa00" stroke="#000000" stroke-width="1" />
  <path d="M65 10 L60 20 L70 18 Z" fill="#00aa00" stroke="#000000" stroke-width="1" />
  
  <!-- Face -->
  <ellipse cx="50" cy="40" rx="15" ry="15" fill="#55bb55" />
  
  <!-- Robes -->
  <path d="M35 50 L30 90 L50 95 L70 90 L65 50 Z" fill="#006600" stroke="#000000" stroke-width="2" />
  
  <!-- Wooden accents -->
  <path d="M35 50 L30 60 L40 65 L50 60 L60 65 L70 60 L65 50 Z" fill="#885500" stroke="#000000" stroke-width="1" />
  
  <!-- Eyes -->
  <circle cx="43" cy="37" r="2" fill="#ffffff" />
  <circle cx="57" cy="37" r="2" fill="#ffffff" />
  
  <!-- Staff -->
  <line x1="15" y1="20" x2="25" y2="90" stroke="#885500" stroke-width="4" />
  
  <!-- Staff top with leaves -->
  <circle cx="15" cy="20" r="8" fill="#00aa00" />
  <path d="M10 15 L5 5 L15 10 Z" fill="#00aa00" stroke="#000000" stroke-width="1" />
  <path d="M20 15 L25 5 L15 10 Z" fill="#00aa00" stroke="#000000" stroke-width="1" />
  <path d="M15 10 L20 0 L10 0 Z" fill="#00aa00" stroke="#000000" stroke-width="1" />
  
  <!-- Small animal companion -->
  <circle cx="80" cy="70" r="10" fill="#aa5500" />
  <circle cx="75" cy="65" r="2" fill="#000000" />
  <circle cx="85" cy="65" r="2" fill="#000000" />
  <ellipse cx="80" cy="75" rx="5" ry="3" fill="#000000" />
  <ellipse cx="90" cy="65" rx="5" ry="3" fill="#aa5500" />
</svg>