<svg xmlns="http://www.w3.org/2000/svg" viewBox="0 0 100 100">
  <!-- Background -->
  <rect width="100" height="100" rx="10" fill="#7787aa" />
  
  <!-- Helmet with visor -->
  <path d="M35 15 L30 40 L70 40 L65 15 Z" fill="#aabbcc" stroke="#000000" stroke-width="2" />
  <path d="M30 35 L30 50 L70 50 L70 35 L60 30 L40 30 Z" fill="#aabbcc" stroke="#000000" stroke-width="2" />
  
  <!-- Helmet plume -->
  <path d="M50 15 Q40 0 50 0 Q60 0 50 15" fill="#6677cc" stroke="#000000" stroke-width="1" />
  
  <!-- Visor opening -->
  <path d="M40 38 L60 38 L57 45 L43 45 Z" fill="#000000" />
  
  <!-- Armor -->
  <path d="M30 50 L25 90 L50 95 L75 90 L70 50 Z" fill="#aabbcc" stroke="#000000" stroke-width="2" />
  
  <!-- Shoulder pauldron left -->
  <path d="M30 50 L15 55 L20 65 L30 60 Z" fill="#aabbcc" stroke="#000000" stroke-width="2" />
  
  <!-- Shoulder pauldron right -->
  <path d="M70 50 L85 55 L80 65 L70 60 Z" fill="#aabbcc" stroke="#000000" stroke-width="2" />
  
  <!-- Sword -->
  <rect x="75" y="40" width="5" height="40" fill="#aaaaaa" stroke="#000000" stroke-width="1" />
  <rect x="70" y="35" width="15" height="5" fill="#aaaaaa" stroke="#000000" stroke-width="1" />
  
  <!-- Shield -->
  <path d="M15 50 L25 40 L25 70 L15 60 Z" fill="#6677cc" stroke="#000000" stroke-width="2" />
  <path d="M18 45 L22 43 L22 65 L18 63 Z" fill="#aabbcc" stroke="#000000" stroke-width="1" />
</svg>