<svg xmlns="http://www.w3.org/2000/svg" viewBox="0 0 100 100">
  <!-- Background -->
  <rect width="100" height="100" rx="10" fill="#553300" />
  
  <!-- Helmet -->
  <path d="M50 15 L30 35 L30 60 L70 60 L70 35 Z" fill="#b08d57" stroke="#000000" stroke-width="2" />
  
  <!-- Face shadow -->
  <ellipse cx="50" cy="42" rx="15" ry="18" fill="#442200" />
  
  <!-- Helmet horn left -->
  <path d="M35 25 L25 15 L32 25" fill="#b08d57" stroke="#000000" stroke-width="2" />
  
  <!-- Helmet horn right -->
  <path d="M65 25 L75 15 L68 25" fill="#b08d57" stroke="#000000" stroke-width="2" />
  
  <!-- Chest armor -->
  <path d="M30 60 L25 85 L50 90 L75 85 L70 60 Z" fill="#b08d57" stroke="#000000" stroke-width="2" />
  
  <!-- Shoulder left -->
  <path d="M30 60 L20 55 L25 70 L30 65" fill="#b08d57" stroke="#000000" stroke-width="2" />
  
  <!-- Shoulder right -->
  <path d="M70 60 L80 55 L75 70 L70 65" fill="#b08d57" stroke="#000000" stroke-width="2" />
  
  <!-- Sword -->
  <path d="M70 90 L85 75 L87 77 L72 92 Z" fill="#cccccc" stroke="#000000" stroke-width="1" />
  <path d="M85 75 L90 30 L93 30 L88 75 Z" fill="#cccccc" stroke="#000000" stroke-width="1" />
  <path d="M90 30 L85 25 L88 28 L93 30 Z" fill="#cccccc" stroke="#000000" stroke-width="1" />
  
  <!-- Eyes -->
  <circle cx="43" cy="40" r="2" fill="#ffffff" />
  <circle cx="57" cy="40" r="2" fill="#ffffff" />
</svg>